<svg width="187" height="26" viewBox="0 0 187 26" fill="none" xmlns="http://www.w3.org/2000/svg">
<path d="M46.4797 9.17211C47.6537 9.92422 48.3278 11.2175 48.5021 13.0519H44.581C44.526 12.5474 44.3838 12.1485 44.1545 11.855C43.7234 11.323 42.9897 11.057 41.9532 11.057C41.1002 11.057 40.4903 11.19 40.1234 11.456C39.7657 11.722 39.5868 12.0338 39.5868 12.3915C39.5868 12.841 39.7794 13.1666 40.1647 13.3683C40.5499 13.5793 41.912 13.9416 44.2508 14.4552C45.8101 14.8221 46.9795 15.377 47.7592 16.12C48.5296 16.8721 48.9149 17.8122 48.9149 18.9404C48.9149 20.4263 48.3599 21.6416 47.2501 22.5863C46.1495 23.5219 44.4435 23.9897 42.1321 23.9897C39.7749 23.9897 38.0321 23.4944 36.904 22.5038C35.785 21.504 35.2255 20.2337 35.2255 18.6928H39.2016C39.2841 19.3898 39.463 19.8851 39.7382 20.1786C40.2243 20.7014 41.1232 20.9629 42.4348 20.9629C43.2052 20.9629 43.8152 20.8482 44.2646 20.6189C44.7232 20.3896 44.9525 20.0456 44.9525 19.587C44.9525 19.1468 44.7691 18.812 44.4022 18.5827C44.0353 18.3534 42.6732 17.959 40.316 17.3995C38.6192 16.9776 37.4222 16.4502 36.7251 15.8173C36.028 15.1936 35.6795 14.2947 35.6795 13.1207C35.6795 11.7357 36.2207 10.5479 37.303 9.55734C38.3944 8.55758 39.9262 8.0577 41.8982 8.0577C43.7693 8.0577 45.2965 8.42917 46.4797 9.17211Z" fill="black"/>
<path d="M64.668 19.078C64.5671 19.9677 64.1039 20.8711 63.2784 21.7883C61.9943 23.2467 60.1966 23.9759 57.8852 23.9759C55.9774 23.9759 54.2943 23.3614 52.8359 22.1323C51.3776 20.9032 50.6484 18.9037 50.6484 16.1337C50.6484 13.538 51.3042 11.5477 52.6158 10.1627C53.9366 8.77771 55.6472 8.08521 57.7476 8.08521C58.995 8.08521 60.1186 8.3191 61.1183 8.78688C62.1181 9.25466 62.9436 9.99301 63.5948 11.0019C64.1818 11.8916 64.5625 12.9235 64.7367 14.0975C64.8376 14.7854 64.8789 15.776 64.8606 17.0693H54.597C54.652 18.5735 55.1244 19.6283 56.0141 20.2337C56.5552 20.6097 57.2064 20.7978 57.9677 20.7978C58.7749 20.7978 59.4307 20.5685 59.9351 20.1098C60.2103 19.8622 60.4534 19.5182 60.6643 19.078H64.668ZM60.7882 14.4828C60.7239 13.4463 60.4075 12.6621 59.8388 12.1301C59.2793 11.589 58.5823 11.3184 57.7476 11.3184C56.8396 11.3184 56.1333 11.6027 55.6288 12.1714C55.1335 12.7401 54.8217 13.5105 54.6933 14.4828H60.7882Z" fill="black"/>
<path d="M66.0438 8.4842H70.4464L73.5695 19.5458L76.7614 8.4842H80.9714L75.5644 23.4806H71.4232L66.0438 8.4842Z" fill="black"/>
<path d="M96.0366 19.078C95.9357 19.9677 95.4725 20.8711 94.647 21.7883C93.3629 23.2467 91.5652 23.9759 89.2538 23.9759C87.346 23.9759 85.6629 23.3614 84.2045 22.1323C82.7462 20.9032 82.017 18.9037 82.017 16.1337C82.017 13.538 82.6728 11.5477 83.9844 10.1627C85.3052 8.77771 87.0158 8.08521 89.1162 8.08521C90.3636 8.08521 91.4872 8.3191 92.487 8.78688C93.4867 9.25466 94.3122 9.99301 94.9634 11.0019C95.5504 11.8916 95.9311 12.9235 96.1054 14.0975C96.2063 14.7854 96.2475 15.776 96.2292 17.0693H85.9656C86.0206 18.5735 86.493 19.6283 87.3827 20.2337C87.9238 20.6097 88.5751 20.7978 89.3363 20.7978C90.1435 20.7978 90.7993 20.5685 91.3038 20.1098C91.5789 19.8622 91.822 19.5182 92.0329 19.078H96.0366ZM92.1568 14.4828C92.0926 13.4463 91.7761 12.6621 91.2075 12.1301C90.648 11.589 89.9509 11.3184 89.1162 11.3184C88.2082 11.3184 87.5019 11.6027 86.9975 12.1714C86.5022 12.7401 86.1903 13.5105 86.0619 14.4828H92.1568Z" fill="black"/>
<path d="M105.942 11.3872C104.612 11.3872 103.7 11.9513 103.205 13.0794C102.948 13.6756 102.819 14.4369 102.819 15.3633V23.4806H98.912V8.51172H102.696V10.6993C103.2 9.92881 103.677 9.3739 104.126 9.03453C104.934 8.42917 105.956 8.12649 107.194 8.12649C108.745 8.12649 110.01 8.53465 110.992 9.35097C111.982 10.1581 112.478 11.5018 112.478 13.3821V23.4806H108.46V14.3589C108.46 13.5701 108.355 12.9648 108.144 12.5429C107.759 11.7724 107.025 11.3872 105.942 11.3872Z" fill="black"/>
<path d="M126.442 9.17211C127.616 9.92422 128.29 11.2175 128.465 13.0519H124.543C124.488 12.5474 124.346 12.1485 124.117 11.855C123.686 11.323 122.952 11.057 121.916 11.057C121.063 11.057 120.453 11.19 120.086 11.456C119.728 11.722 119.549 12.0338 119.549 12.3915C119.549 12.841 119.742 13.1666 120.127 13.3683C120.512 13.5793 121.874 13.9416 124.213 14.4552C125.773 14.8221 126.942 15.377 127.722 16.12C128.492 16.8721 128.877 17.8122 128.877 18.9404C128.877 20.4263 128.322 21.6416 127.213 22.5863C126.112 23.5219 124.406 23.9897 122.095 23.9897C119.737 23.9897 117.995 23.4944 116.866 22.5038C115.747 21.504 115.188 20.2337 115.188 18.6928H119.164C119.247 19.3898 119.425 19.8851 119.701 20.1786C120.187 20.7014 121.086 20.9629 122.397 20.9629C123.168 20.9629 123.778 20.8482 124.227 20.6189C124.686 20.3896 124.915 20.0456 124.915 19.587C124.915 19.1468 124.732 18.812 124.365 18.5827C123.998 18.3534 122.636 17.959 120.278 17.3995C118.582 16.9776 117.385 16.4502 116.688 15.8173C115.99 15.1936 115.642 14.2947 115.642 13.1207C115.642 11.7357 116.183 10.5479 117.265 9.55734C118.357 8.55758 119.889 8.0577 121.861 8.0577C123.732 8.0577 125.259 8.42917 126.442 9.17211Z" fill="black"/>
<path d="M138.659 20.6877V23.6182L136.802 23.687C134.949 23.7512 133.683 23.4302 133.005 22.7239C132.564 22.2745 132.344 21.582 132.344 20.6464V11.4147H130.253V8.62178H132.344V4.4393H136.224V8.62178H138.659V11.4147H136.224V19.3394C136.224 19.9539 136.302 20.3392 136.458 20.4951C136.614 20.6418 137.091 20.7152 137.889 20.7152C138.008 20.7152 138.132 20.7152 138.26 20.7152C138.398 20.706 138.531 20.6969 138.659 20.6877Z" fill="black"/>
<path d="M141.741 10.1077C142.778 8.78688 144.557 8.12649 147.079 8.12649C148.721 8.12649 150.18 8.4521 151.454 9.10332C152.729 9.75454 153.367 10.9836 153.367 12.7905V19.6696C153.367 20.1465 153.376 20.7244 153.394 21.4031C153.422 21.9168 153.5 22.2653 153.628 22.4487C153.757 22.6322 153.949 22.7835 154.206 22.9028V23.4806H149.941C149.822 23.1779 149.739 22.8936 149.693 22.6276C149.648 22.3616 149.611 22.0589 149.583 21.7196C149.042 22.3066 148.418 22.8064 147.712 23.2192C146.868 23.7053 145.914 23.9484 144.851 23.9484C143.493 23.9484 142.369 23.5631 141.48 22.7927C140.599 22.0131 140.159 20.9124 140.159 19.4907C140.159 17.6471 140.87 16.3126 142.292 15.4871C143.071 15.0377 144.218 14.7166 145.731 14.524L147.066 14.3589C147.79 14.2672 148.308 14.1526 148.62 14.015C149.18 13.7765 149.46 13.405 149.46 12.9006C149.46 12.286 149.244 11.8641 148.813 11.6348C148.391 11.3963 147.767 11.2771 146.942 11.2771C146.015 11.2771 145.36 11.5064 144.974 11.965C144.699 12.3044 144.516 12.763 144.424 13.3408H140.641C140.723 12.0292 141.09 10.9515 141.741 10.1077ZM144.658 20.6464C145.025 20.9491 145.474 21.1004 146.006 21.1004C146.85 21.1004 147.625 20.8528 148.331 20.3575C149.047 19.8622 149.418 18.9587 149.446 17.6471V16.1888C149.198 16.3447 148.946 16.4731 148.689 16.574C148.441 16.6657 148.097 16.7529 147.657 16.8354L146.777 17.0005C145.951 17.1473 145.36 17.3261 145.002 17.5371C144.397 17.8948 144.094 18.4497 144.094 19.2018C144.094 19.8714 144.282 20.3529 144.658 20.6464Z" fill="black"/>
<path d="M169.835 13.8636H165.818C165.745 13.3041 165.557 12.7997 165.254 12.3502C164.814 11.7449 164.13 11.4422 163.204 11.4422C161.883 11.4422 160.98 12.098 160.494 13.4096C160.237 14.1067 160.108 15.0331 160.108 16.1888C160.108 17.2894 160.237 18.1745 160.494 18.8441C160.961 20.0915 161.842 20.7152 163.135 20.7152C164.052 20.7152 164.704 20.4676 165.089 19.9723C165.474 19.477 165.708 18.8349 165.79 18.0461H169.794C169.702 19.2385 169.271 20.3667 168.501 21.4306C167.272 23.1458 165.451 24.0034 163.039 24.0034C160.627 24.0034 158.852 23.288 157.714 21.8571C156.577 20.4263 156.008 18.5689 156.008 16.2851C156.008 13.7077 156.637 11.7036 157.893 10.2728C159.15 8.84191 160.883 8.12649 163.094 8.12649C164.974 8.12649 166.51 8.54841 167.703 9.39224C168.904 10.2361 169.615 11.7265 169.835 13.8636Z" fill="black"/>
<path d="M186.304 23.4806H181.571L177.98 17.0693L176.357 18.7615V23.4806H172.504V3.26986H176.357V14.1938L181.241 8.55299H186.098L180.856 14.2901L186.304 23.4806Z" fill="black"/>
<path d="M0 9.39224H18.7845V25.8287H0V9.39224Z" fill="black"/>
<path d="M18.7845 0H28.1767V9.39224H18.7845V0Z" fill="black"/>
</svg>
